<svg viewBox="-477,-477,954,954" stroke-linejoin="round" stroke-linecap="round" xmlns="http://www.w3.org/2000/svg" xmlns:xlink="http://www.w3.org/1999/xlink"><path fill="lightsteelblue" fill-opacity="0.2" d="M0,-345.86880907372404L5.542933241753953,-322.8480727585254L10.74369537155823,-312.7909683331128L15.896561622916423,-308.38904867423224L21.403076940775847,-311.19604137930816L30.457210631132064,-353.95895504070194L38.03206795142128,-367.92575750749717L39.96095642666039,-330.9340443123862L50.85410459946234,-367.9549679260558L54.83292884130661,-352.066737638962L63.27675778276258,-364.96352373518073L67.47428506809794,-353.05397138380147L76.30178743618741,-365.1316744282584L91.80313398214867,-404.5015471271159L105.56888330101187,-430.757069323728L111.88409999777078,-424.84215153688086L116.04504449276105,-411.802924318609L112.58155863335115,-374.74739351033674L108.35950659055433,-339.43461103504035L122.70260968750674,-362.74846270387263L118.01421364914786,-330.1067593553235L110.40273432737337,-292.8563694271351L100.39581258427343,-253.06303110234984L114.7671957554158,-275.3994902726923L109.23277323992677,-249.94596188893507L118.93897889468909,-259.9031339437183L130.14455052595167,-271.9520559988051L142.73059435060767,-285.55680012544553L124.19396875776332,-238.15831067277585L147.4623595646949,-271.3141325571556L174.98603442581253,-309.18355598068786L181.59244745345006,-308.3836756650733L183.58813242773587,-299.8774171252221L176.0990507358848,-276.8569570207349L180.53798030937838,-273.3575126396031L191.69779877572182,-279.6928173605057L207.36177681668923,-291.6803077073609L197.46856863591003,-267.9040382800381L195.6992962053061,-256.1766607535941L190.67117679449066,-240.9068031334397L195.77159981272018,-238.80951974407827L215.04745265013707,-253.32535848130445L223.50055289342055,-254.3026017504091L211.31922359007248,-232.27684439391234L241.04683240214905,-255.9833827788214L228.6428108848163,-234.60766628861552L240.05194655743836,-238.00023283517996L254.6589907508741,-243.95755250745148L249.61314177317814,-231.03819750534794L260.15893936945486,-232.63572779134097L256.21164633850645,-221.30951782786914L281.22191540446363,-234.60532382121414L316.51645451080947,-254.96325071496148L308.4815381989728,-239.87710992318154L296.26710898528705,-222.32436183693022L296.65652333340256,-214.75644538115827L298.5869048211203,-208.4368489792811L307.7524553726169,-207.0695865165636L306.88044957910046,-198.91619977904418L324.71836847032085,-194.98405033550532L323.94818013024366,-187.0315689873819L251.31855371971014,-139.40216526379982L289.6217640975215,-154.2072763584791L342.91193643910196,-175.09327807506762L308.81504401175204,-151.056912931843L288.191378332401,-134.88811668273274L296.1837968808,-132.47924502604874L283.52807821907015,-121.02127695766725L260.4140075610478,-105.90810979038031L262.6806434579715,-101.61051590099497L274.18855124017307,-100.68583391056497L294.6156499555332,-102.48261644768634L300.7955427785483,-98.87746945674243L270.03100879293277,-83.65629676979397L289.47447824953093,-84.26180175940381L316.0653834176585,-86.14502571680381L314.4614571360818,-79.93487269803501L338.6544221364753,-79.92152150088539L321.6113733239726,-70.0937019145634L331.9827898154398,-66.4058556683776L338.21039454631966,-61.633200251987226L347.46159845936296,-57.174673785956436L361.3060874065408,-53.09955257368594L305.72466653734756,-39.58217889014204L317.2553676865946,-35.54912566583116L373.4365669671509,-35.36483113473281L429.16798474649823,-33.220316247020385L394.23511629799526,-23.716205605430684L370.0672333399555,-15.892279283007989L441.79185736392213,-11.37899108048803L431.48013447055723,-3.703737991294032L369.87257423180205,3.1749112219434585L347.8419187410961,8.959173964112914L369.0239604994511,15.847476695089455L352.0199407428428,21.176645510684093L344.31670449547113,26.65229055703266L364.0803184373609,34.478784708242046L356.68948639871104,39.96780095326271L366.3067362943883,47.42574074967411L368.5380443892316,54.16240124109634L360.34132369014355,59.294027707550335L328.96455352697626,59.94830005728051L303.31217405291846,60.67092958108258L311.40853637344077,67.87004112147747L322.90152190096387,76.20387997279838L334.19641418890774,84.95142164238263L337.22254238706023,91.91150351067422L430.3428034285006,125.26651822218727L400.200037965705,123.98299478554009L345.436090037787,113.5517040508548L304.9714654929438,106.08490669224724L294.77345421555987,108.2448954460765L301.63704041968924,116.67968715725833L302.4915295961637,123.02067172304731L306.0975656948717,130.65484913136947L291.89428412906676,130.56060056758568L293.8659710990846,137.54411265986923L356.1854151856609,174.2281352743538L388.48254403429166,198.3619550632669L390.0896331396969,207.70075779353974L329.39399894791507,182.70929865451697L298.6268415012611,172.412287354372L304.12790755832464,182.62007021186716L330.62507378091686,206.334498994948L330.5393754215451,214.25162971666094L294.32360747848503,198.0340583860332L283.17453574044816,197.67781841860688L287.77503709412025,208.32693430858268L280.39793547236985,210.41583823023606L267.67683977203643,208.1471296659406L276.6690620978513,222.86501208316682L274.80713793895967,229.25388835662687L249.4945556313492,215.50745490152516L266.7754401268947,238.55224361539084L253.44488349303847,234.58480048323298L233.16830939153823,223.36996594956216L240.4227202414031,238.3678375796866L247.5920606302148,254.05126591472862L249.63730113556878,265.1061629325462L234.86022710305127,258.15253108181946L244.1811595653413,277.83333591103224L224.84637041831957,264.8684590260099L220.92844163403134,269.4967763740637L256.7734775800393,324.42490084678127L250.21559098304456,327.5402406786288L231.23525462265434,313.7150329642L210.38703401467075,295.93571088174076L203.2096697468147,296.48898120624233L192.6230454329553,291.6558416005394L194.87367782940188,306.37378926046193L190.6761068605656,311.455090748324L187.1559805489199,317.8317712375443L178.58638386368676,315.54502853148165L178.62857215913618,328.65645348291406L177.54736975125024,340.47049206610956L168.87535467644514,337.8638345397573L157.64137678155586,329.4098474650752L144.79361644986105,316.4001831019967L144.35886384798334,330.32133142123905L143.0856731815282,343.3535272093113L136.97793183861046,345.27386892913694L140.60791522506435,372.9792004591216L136.64521001694663,382.22097219883983L131.402131807523,388.4670541741966L127.88988755840329,400.6132513838139L130.15751779618063,433.25204544672397L118.31089870073455,419.84364171022213L106.9642775637078,406.1607845707376L96.12350684312769,392.21671030274985L85.10078512485302,374.96976156907306L78.43779044864458,375.35322227056787L74.82511694442528,391.5166301363425L64.16868922199183,370.1079474733827L60.698399770359025,389.72726886183676L50.139294484032426,362.7829582789902L45.53164730215614,377.06735638671177L40.9310369256039,395.9706529837969L34.39621105389583,399.736111215401L27.099241573180112,394.0170255673875L20.600201681329395,399.6384099892831L13.754764496284073,400.45496169176573L6.976986971786448,406.37451549528686L-4.0689294036421565e-8,409.5671077504726L-6.94113570806294,404.2863544255024L-13.700995483472864,398.8895332362294L-20.519567930326385,398.07413521983216L-27.49331593749128,399.74677918485236L-33.90383607494287,394.0139666872054L-41.736306175477225,403.7609017178713L-50.53900999958483,418.5355020578885L-57.64480039508978,417.08905961477427L-64.55514788385811,414.4903578686883L-70.23382333579488,405.0900288364537L-77.37340542081903,404.8503518195259L-86.12740150597133,412.1507944584793L-92.38092271397082,407.0473907012568L-96.49635072721978,393.738040245345L-106.69834129870306,405.1509809291451L-118.31089878415486,419.8436416867145L-125.50063980053704,417.75081286040927L-129.00137273634476,404.0949625969306L-143.11302710166098,423.0882349547874L-145.25765183002812,406.31150451674966L-146.6857870742293,389.1014774037175L-147.9525676965543,372.9371202447835L-154.13188786452787,369.8604210147639L-152.09496721128124,348.0230496784814L-162.82668306864446,355.8056879365043L-175.22131496942572,366.1451567201006L-180.3136874030891,360.74816205398776L-185.51416725888467,355.7478765793524L-187.10578206055695,344.2535647335588L-208.4178509623225,368.25437233832014L-231.39931548699283,392.96662631489346L-229.65996647952093,375.13229552943886L-223.17572773827013,350.8693124167963L-231.18015812627638,350.0362243727497L-231.25140686240707,337.40271355864627L-233.98404045034738,329.1278554347265L-238.36033522183732,323.3815730754129L-252.43427746511068,330.4445723688155L-259.68975562212137,328.1095227522883L-276.2072915446745,336.9279849239135L-295.4661573429959,348.05839032517446L-291.05720147809507,331.1696665669508L-289.3207577347239,318.0141942089828L-306.19122052927844,325.16446539274386L-305.89744459629173,313.8777261720968L-302.34192947172255,299.75782586954296L-282.5591735663397,270.68529646180076L-290.99595262612524,269.34150936566385L-288.96017808949597,258.38997299901246L-285.0556240135298,246.22425870734526L-286.43392210041986,238.95336512991705L-300.65881878750423,242.18946183088823L-305.59635752718896,237.63357593335851L-329.2582854800715,247.0815556760485L-364.74791770212533,264.0493637871887L-349.9614683821688,244.30028424053612L-337.2092829907424,226.88945470449485L-328.7868624370598,213.11567188043463L-339.4838489014974,211.8630297694693L-321.1374187688082,192.83379288554L-329.37418128024746,190.16427216809052L-330.3071620865652,183.2158147686034L-339.8556986469037,180.95401702286864L-390.3425688744072,199.31169690220344L-419.5022480036966,205.19957095433966L-392.6984620554094,183.8027086849806L-384.8337268323259,172.13123106202903L-380.0486523893377,162.22017055399058L-409.8617582974618,166.68720892101982L-387.82806874963234,150.0202284269435L-429.5555571274291,157.7387504744101L-392.25619656404467,136.44706700033893L-375.6924609891339,123.49757406974L-374.7647104476427,116.1030652189889L-373.69468691570285,108.77707701966308L-352.83854069942436,96.16771321762889L-364.55788660850084,92.66918912857301L-357.4562708040113,84.35870655331345L-370.5849906621846,80.76727383305867L-413.3868595608423,82.68894942500681L-459.4336433968314,83.72411429876762L-430.9222180000378,70.90808692309795L-391.78362043341974,57.578700335980294L-371.48469098436976,48.096130575790426L-367.5857560520083,41.188750621991055L-339.13032237367116,32.115994071284604L-339.6316644870166,26.28963876198163L-356.1893408016974,21.427466193878043L-367.459051244198,15.78027268505241L-427.69936657172616,11.016018465357519L-449.2314653871011,3.8561117721496614L-452.36405319468065,-3.8830014052766475L-465.279342017025,-11.983945460669359L-432.14196725260734,-18.55803553137609L-401.53156638878437,-24.155142003929218L-360.45406453981286,-27.901424321133216L-349.00636247507606,-33.0512654404638L-339.56677695261004,-38.04916567850906L-353.3618495887806,-45.74976603495923L-388.1676419223288,-57.04727613663055L-351.5831105236028,-57.852867099268394L-345.9152620449509,-63.03728384354195L-359.1174797135628,-71.83355367229785L-367.01399770794114,-79.98899265439059L-428.09024276535604,-101.02813173398535L-422.7507086816742,-107.46157706370708L-357.8759594749023,-97.54068421911573L-316.54525958473323,-92.14171173931585L-330.8763021081245,-102.50632424193714L-333.53194408847827,-109.63857486686233L-358.7230795132864,-124.78250832154272L-312.9077735007973,-114.90406871064044L-317.7065541583526,-122.8957203212653L-329.5759115892351,-134.03565413257752L-280.64686702648766,-119.7914592930098L-310.4821726490815,-138.87472671261256L-367.16279449143593,-171.85072703120906L-398.39663701780967,-194.875759156159L-376.39238281185953,-192.1886326434415L-313.1257150836761,-166.72180647212483L-296.5201272507101,-164.47471621418603L-281.896671331791,-162.75311913930346L-286.6707776539977,-172.13756532556397L-298.2905447259546,-186.15536145137375L-294.17473009587684,-190.68050599974342L-298.6554938693472,-200.9487449192859L-270.3308948383965,-188.71195962018177L-263.2452179970488,-190.56923700527025L-276.63944699339146,-207.59539844916296L-261.08214102005206,-203.01905206959367L-285.20778901523306,-229.743206110767L-329.73366976044144,-275.0755547941371L-341.55821028702735,-295.0298471571571L-335.66488940046423,-300.1536140182717L-324.33210570526086,-300.1969551475588L-289.3457044329447,-277.18663967822266L-234.1195671889841,-232.11855735175521L-237.02420977350528,-243.20772000561183L-223.15002243890217,-236.97759088790144L-222.21132965642818,-244.24917707391225L-214.53895660845848,-244.10595033394537L-275.8683216548549,-324.97218936460615L-263.95988160013076,-321.98813639199386L-230.52697575910278,-291.26330325573093L-216.93529470869973,-283.9752645950224L-226.89824904907192,-307.83105202065354L-219.1602799422259,-308.2763800494728L-218.55883104697384,-318.8838663302114L-207.8732466633271,-314.7465900492629L-204.12088220041164,-320.9119305245266L-177.0453867114092,-289.190333833484L-180.7976569457236,-307.0339477647284L-152.61243409920755,-269.65154812704645L-149.9556565200424,-275.90151825959185L-145.43876187159432,-278.898002833172L-143.19746501438726,-286.49085433956833L-142.54066067872185,-297.85515873027043L-131.5403988377707,-287.4395108635171L-130.76841208529376,-299.2237182265259L-113.160473576059,-271.5439421009975L-112.71821060399314,-284.123523861817L-116.84896190429976,-309.95575411883163L-106.23801774871883,-297.1666437197716L-92.7561775870394,-274.2171575136246L-87.87642401564277,-275.2716467976001L-81.18518700677461,-270.2390836802935L-77.66713808398087,-275.61327371267396L-84.0937518184913,-319.31767322534955L-80.96119203871665,-330.34929186554484L-70.88718329202109,-312.3420094250625L-66.26257303937093,-317.09039961919535L-64.14190786651149,-335.6175660987639L-54.892601845469606,-316.60594066691397L-43.82512710615573,-281.3887544050984L-41.13268746064415,-297.6156366663913L-33.45138496771292,-277.02545493409554L-29.22779163195388,-282.75237126429937L-23.02682334192535,-267.6065922676317L-18.787856628491802,-273.1713127947817L-13.504424606677635,-261.9822306377305L-9.256083766500282,-269.4807811405783L-5.041014363773172,-293.6138178019031ZM-3.920659868610361,-228.3587844141271L-8.718392847376805,-253.82649661238457L-11.703602404626134,-227.0467608775368L-14.703814045595161,-213.79022979312668L-18.192595512776332,-211.42553696555234L-22.624584447181906,-218.87233157623342L-29.758455042728627,-246.44269749383L-28.33758705798473,-205.03666389221002L-40.04872799473762,-257.1415630729549L-38.659449000901404,-222.97742874443747L-47.77405548563135,-249.97404595640592L-41.2713373810889,-197.49828995038303L-45.81115410794948,-201.85239790404685L-50.76084377639533,-207.12156495930415L-58.164958141463174,-220.8618202345189L-54.86697971261505,-194.70355507330945L-54.89635915213141,-182.7321256699002L-64.85280414290742,-203.1504854212378L-75.02253627413725,-221.79079800105146L-73.01859964745752,-204.24601895035192L-81.85515474224599,-217.13052305441926L-85.57042735602082,-215.69337579506396L-102.11425896918182,-245.03704826382247L-101.70575377064199,-232.72266844100858L-114.5936616034882,-250.40783158936244L-102.42234037306099,-214.02329906485332L-116.35239858460011,-232.78273865819452L-124.91822302275479,-239.54716383844277L-128.51330224044165,-236.450001470619L-127.66715564263643,-225.57563128594558L-124.10260509877104,-210.75335496632968L-127.42956548110939,-208.14661859451346L-134.0663034015698,-210.774496852522L-133.63641789141246,-202.34256939202783L-139.74679114299195,-203.89474473964447L-136.87328338043773,-192.52941425850622L-142.6364270821369,-193.5137075282822L-160.51726869878323,-210.12225747781588L-176.7378486365702,-223.30249826376837L-172.60082438449234,-210.5449413236022L-165.377076204844,-194.81378000423146L-184.8967536791774,-210.37856473259984L-190.58908610398672,-209.4907919958127L-177.69212526144554,-188.70287936331223L-195.11721509698475,-200.20745164777952L-198.5252912619937,-196.82850416502578L-202.6289201065858,-194.11392187779288L-209.7630276056784,-194.15352683888352L-232.91452434691038,-208.27360396536963L-224.99693076024195,-194.34699004085056L-215.06952299067768,-179.41864535384684L-228.68954879648726,-184.21611249096534L-221.1017799615122,-171.9300814805197L-219.84451029360272,-164.97541911422277L-222.64413814649714,-161.177186249019L-229.23124401467476,-160.0212113751975L-232.3776317881423,-156.3540414078947L-241.59933929435934,-156.60177286756632L-237.16499668820143,-148.0084986356743L-230.27081956017173,-138.27101097989245L-241.20166285312257,-139.25784503048587L-257.71069540738324,-142.94777857238486L-255.5179920032971,-136.04893868756707L-272.6960001884832,-139.24052078853316L-260.97565921901895,-127.65627263392751L-239.48445694547286,-112.0908181771499L-231.36449325227113,-103.48639503926213L-247.99314044974312,-105.85352512175827L-272.9888991853192,-111.02220880402372L-280.211022074424,-108.39164300850467L-266.3466834164955,-97.80619148492397L-249.24731515681154,-86.70115460615372L-251.19493468378633,-82.57276444021508L-251.07919609918852,-77.78497680785212L-277.94433061992333,-80.90554388701149L-265.18745347873,-72.27801972670437L-281.0638374797443,-71.44532844271036L-272.0857147088703,-64.21148786521196L-257.8436424141244,-56.19582181564966L-249.55476950560174,-49.917943130356456L-284.27632195793154,-51.80461564870642L-280.48702721950144,-46.15403363555294L-271.93976176028735,-39.96578026143876L-276.7281203194755,-35.82799550840935L-304.80248808525465,-34.15375459418454L-319.3782421421455,-30.24545163615064L-314.6447844064231,-24.355496313693056L-325.4400153928408,-19.57766323647763L-329.90122903833293,-14.167378302231034L-305.5644463605512,-7.870256272350218L-288.94738917265704,-2.48026586172086L-300.95564244022097,2.5833421857673877L-289.3841791557442,7.45350989578189L-295.4732253577161,12.688891596190674L-314.49534025522735,18.919258662495448L-314.64478441368203,24.355496219915935L-313.66053471832765,29.703978703238015L-303.7647481292095,34.03747357575983L-298.4755299884983,38.64363300131007L-308.6161150693828,45.35594109007478L-330.9755501618343,54.461900779257235L-316.6367655208141,57.70176635662453L-304.33612462772567,60.875748310622726L-293.04342988770793,63.86745157818505L-287.83861495631805,67.92912934272051L-291.6903528419877,74.14654700234937L-294.404482566656,80.24125083765485L-293.484964384464,85.42919579202729L-276.51452366506845,85.66490622005425L-280.4592934755817,92.19254035163982L-298.5607225555461,103.85491745203024L-315.35835722395916,115.80395689168836L-304.55877021598326,117.80987493900702L-297.6550328333615,121.05371052519294L-299.85494152154257,127.9902440102592L-312.38862279667325,139.72745750320337L-309.94398400481515,145.06943445238426L-283.4883109133921,138.66833860085993L-272.23099402980694,139.00308522822738L-278.1002194949374,148.07270277622837L-276.43053904809875,153.33136017604272L-286.87050575076887,165.62476366710442L-279.50887826353414,167.8370504047132L-268.61364826483367,167.6347830477516L-256.93382832777144,166.5414032878744L-254.03706389176702,170.92747385224362L-255.77476855821035,178.55065287385193L-264.9369297146508,191.7939057078188L-252.418076986701,189.41923071638394L-245.4197315900795,190.83986764196587L-245.7670027345367,197.97250041794447L-247.54433385065585,206.51028746420656L-246.33357182178167,212.77707228702826L-246.53673190077544,220.45466583072334L-245.78140005261304,227.4915945282243L-250.511666306144,239.98450945815L-249.32128927314247,247.1903508259462L-241.7615222891335,248.06861983487724L-229.59287408002876,243.81967591744663L-229.2384949654023,251.9732625785008L-226.60264392396377,257.83221184835156L-226.87373277349417,267.2566866754157L-211.99114260888658,258.59472464135706L-199.09597986488467,251.55126654446218L-200.13666906472827,261.9853242139581L-198.0881408831211,268.7446069697382L-193.44559359776554,272.10545318214116L-189.04121318761221,275.8167795358294L-184.27859574145955,279.02128110328124L-176.93970570936972,278.1786062070535L-169.95741233267776,277.61266017726257L-163.31226720642482,277.3399331146793L-158.2701262036321,279.64814777579534L-152.94761301502004,281.40638102177087L-148.0943611013789,283.99046430599884L-145.5318187037555,291.161125225009L-140.5122063687543,293.6164691547474L-136.9720454764264,299.3086387951793L-133.27741864939307,304.9648160100139L-128.62517411767843,308.65359343470715L-125.23314623792072,315.6693367630665L-118.32238545729885,313.8641848652263L-118.01421368194293,330.10675934359915L-108.98413246940078,322.19222231812023L-103.5959990599526,324.51299143058543L-99.81269941422974,332.24401389790955L-90.83741599705445,322.34994345864976L-84.09375191366085,319.3176732002862L-79.59409818125037,324.77108198186926L-75.27837744154544,331.6904206367213L-68.61217648971596,328.3341022171815L-65.02400779682453,340.23308512897233L-59.08467987942584,340.7847321897241L-52.342112436326126,336.0739093088005L-47.42301625248641,343.12932159151956L-41.46316524629008,343.37448801248325L-34.91836052601397,337.8034623671848L-27.861051267576297,323.7876475614073L-21.940450998086305,319.0093417719763L-15.95031754049316,309.4318985162248L-11.012540864527436,320.61811059606214L-5.498119093243402,320.23787142247704L-3.18193843840199e-8,320.2850661625709L5.740115601969619,334.33295863530503L11.299309291851412,328.9670623465918L17.186702873846997,333.41744492179225L22.871899244426405,332.55239579416457L27.816289834401623,323.26745261044675L32.234129893399306,311.8359665662327L37.081722890578966,307.08986054965555L42.34786462429836,306.4080530709052L48.32466650377696,310.2790249237024L52.75196633575367,304.2593237048631L60.02544202946911,314.07847719472255L64.12657002214092,306.86885177788344L71.00274106127739,312.85117813469526L79.09697304224198,322.74264204865955L84.75859271397877,321.842182267976L92.11195894800328,326.8728470029961L94.85537752255703,315.7427018362744L95.65681972654274,299.6436254601089L99.11352072832169,293.01151280073816L102.37120720453346,286.3504863290339L103.77232872898468,275.2684309212944L107.90477388491998,271.99051887472245L116.97643864995779,280.70086905130955L123.65956043931726,282.95727438181194L128.49867679797504,280.7927991861592L133.5253078287646,279.01653856747316L138.06188711613012,276.216258282459L140.61039981630216,269.6389818792665L146.96370013579832,270.3966554372278L146.95474210392553,259.6549484165272L154.30464209000314,262.0430165351937L148.42087448724448,242.4343442577943L162.6485715769014,255.71056977454126L165.00003937413427,249.83108973082412L165.72229495559174,241.79378105265567L173.4788958457698,244.01979240563563L186.00648253136524,252.35351717499412L187.77541612125265,245.8040474146652L172.8494780229029,218.3896689700688L172.93183548231778,210.94872099869872L172.81073799846317,203.57061486757783L186.2754608132235,211.94728032345895L197.61625135944215,217.21487754909123L208.11670213445623,221.01272563862125L205.68506594942235,211.05099756105963L212.61469217070285,210.7974835303169L207.1532740911547,198.4481506120178L223.17412372481346,206.56663715384784L222.79517023264066,199.22481507438914L229.34328357583672,198.10126604613177L236.31847328577913,197.14527540147205L237.22827575499463,191.0943064675113L240.06153883256113,186.67330462262277L239.889782087883,180.01776473801635L245.4822455800873,177.7102147750226L244.64361309053686,170.78024194276207L247.53923424156605,166.55544414734612L250.8000327007754,162.56555114078094L257.5401793834199,160.72411954865504L256.2327050472184,153.86037724053926L262.9056673901588,151.7886578624031L256.34095076821524,142.18800427720763L269.3438455568355,143.4104269291024L261.0708451991059,133.30463378334684L236.58695327305153,115.72653438804774L251.30652524845132,117.62414304607769L249.4757692698558,111.58733840958185L255.6763702433486,109.13303901900497L257.51210947841327,104.7279331330244L267.5501930693534,103.4941623308624L242.3309632765911,88.98728636547956L271.43834848169365,94.42034789987396L268.55514751884704,88.2794111902377L280.504378948617,86.90097364630387L263.4063184200148,76.67374038400105L263.1724859642001,71.72883134202833L268.41322398635043,68.22959193202668L245.15333690682078,57.855520006834034L261.4146353499562,56.97410307879651L281.29723695461973,56.26732559587026L282.7353484608748,51.5237989157466L282.5477832619204,46.49313022961927L270.39005669540796,39.738026956240596L271.5501656426099,35.15760558098907L277.8212489674148,31.130450441436402L276.7553321921123,26.20901771473142L271.9588642842195,21.051336097923674L273.32251471232127,16.442403779562724L257.39376673440984,11.053595853949759L276.85752067137054,7.130867665245388L283.20431152356224,2.4309684183164806L309.83130789804466,-2.6595291284090634L267.4625268098854,-6.888885922647185L277.21595067517933,-11.904845695396649L272.2801647002992,-16.37969856402075L270.39718428173944,-20.930452161871163L239.85012967405544,-22.714056640074226L250.84000984897423,-28.10714629404929L260.15866534902096,-33.6827477753012L267.29064656161086,-39.28252037332218L231.028882319854,-38.01571465836855L256.53879892806174,-46.74991491005779L235.73143691863922,-47.15288941701154L271.1073304522161,-59.08658083564799L241.0880723376161,-56.89612861211326L245.64211969166857,-62.44126623865348L218.33945861205402,-59.509390347483304L211.77130954964034,-61.64354181241209L235.6185068244608,-72.99521569568233L253.67496510411073,-83.38799964362612L216.70046630905327,-75.379671026089L206.06232469080297,-75.66893987805295L210.08950754400354,-81.26713474549454L218.8201351924153,-88.99224400158812L216.78001947565193,-92.53049976793024L244.23303148912078,-109.24232845567711L250.36075979674553,-117.18147702978747L226.26865460923383,-110.67933742635795L208.525144595173,-106.47442462164159L203.4406103601572,-108.32066616990438L213.4222849744025,-118.38174380933545L212.71515694245642,-122.81115311204844L211.91845226921075,-127.25094166657489L202.6059244759944,-131.32671242094503L209.41863384029736,-140.90620289501825L193.69717093353182,-135.2156685832351L208.26458906271657,-150.7675015647992L209.4042646079527,-157.1408640478102L207.08804518948426,-161.03291649062487L184.36948994942583,-148.5150102632647L174.97716400927456,-145.97217348681065L178.76754196165584,-154.4151449795412L172.5876055014351,-154.32890105910846L174.12782943281505,-161.1701193370386L155.87726249943668,-149.3268913805023L190.36826973289342,-188.7412002719086L182.36291240652773,-187.12041341568312L193.79925422348447,-205.80809206973862L179.34562176895432,-197.13225504352027L182.82869305102602,-208.0254912822256L152.87500871264305,-180.08637585662726L163.33251427176884,-199.23910990739918L169.2851382946209,-213.88624211678817L156.07989590713845,-204.3135939656751L142.63642712058686,-193.51370749994123L134.15055191404838,-188.69955139317975L138.56608646549972,-202.17206124259067L146.87244167012608,-222.3835963017321L132.38499355175207,-208.13119841808975L139.96982803529392,-228.63019494578276L146.62166779773537,-248.99564646927115L118.40911419517005,-209.21755903273146L102.83234308269869,-189.19992901688204L108.74321008922058,-208.5294436680497L101.17910020798472,-202.42597760079258L106.02848156815395,-221.55874710359893L83.30737751482967,-182.0416544512935L86.65171497079417,-198.2760814845307L80.82519085628263,-193.951034670662L86.91818968845908,-219.09061717117876L91.24822934436416,-242.04676926936787L89.1888984553132,-249.47722252409415L86.5661330286681,-255.91739049675266L84.22440160549269,-263.8317384246146L76.82875272739001,-255.73793062330574L72.99381374877099,-259.0292941012822L69.73318921921056,-264.7882777088801L63.43753322188751,-258.8467836480845L55.980235116398354,-246.65924496135426L49.17454870439582,-235.3180169298949L45.323778230225344,-237.15315969854439L39.016221635605014,-225.03519822948687L36.593724599060984,-234.95796248521233L33.91310571795468,-245.37833917254508L27.755510044340394,-229.8554392156287L23.268799827008603,-225.10453056556767L20.609709474941244,-239.51606461249696L16.710010450380384,-242.95988459763703L12.402428978601748,-240.60380884171482L8.664623805587196,-252.26106815784365L3.9833997664389877,-232.01306628305107L0,-221.60491493383745Z"/><path fill="steelblue" fill-opacity="0.2" d="M0,-345.86880907372404L5.542933241753953,-322.8480727585254L10.74369537155823,-312.7909683331128L15.896561622916423,-308.38904867423224L21.403076940775847,-311.19604137930816L30.457210631132064,-353.95895504070194L38.03206795142128,-367.92575750749717L39.96095642666039,-330.9340443123862L50.85410459946234,-367.9549679260558L54.83292884130661,-352.066737638962L63.27675778276258,-364.96352373518073L67.47428506809794,-353.05397138380147L76.30178743618741,-365.1316744282584L91.80313398214867,-404.5015471271159L105.56888330101187,-430.757069323728L111.88409999777078,-424.84215153688086L116.04504449276105,-411.802924318609L112.58155863335115,-374.74739351033674L108.35950659055433,-339.43461103504035L122.70260968750674,-362.74846270387263L118.01421364914786,-330.1067593553235L110.40273432737337,-292.8563694271351L100.39581258427343,-253.06303110234984L114.7671957554158,-275.3994902726923L109.23277323992677,-249.94596188893507L118.93897889468909,-259.9031339437183L130.14455052595167,-271.9520559988051L142.73059435060767,-285.55680012544553L124.19396875776332,-238.15831067277585L147.4623595646949,-271.3141325571556L174.98603442581253,-309.18355598068786L181.59244745345006,-308.3836756650733L183.58813242773587,-299.8774171252221L176.0990507358848,-276.8569570207349L180.53798030937838,-273.3575126396031L191.69779877572182,-279.6928173605057L207.36177681668923,-291.6803077073609L197.46856863591003,-267.9040382800381L195.6992962053061,-256.1766607535941L190.67117679449066,-240.9068031334397L195.77159981272018,-238.80951974407827L215.04745265013707,-253.32535848130445L223.50055289342055,-254.3026017504091L211.31922359007248,-232.27684439391234L241.04683240214905,-255.9833827788214L228.6428108848163,-234.60766628861552L240.05194655743836,-238.00023283517996L254.6589907508741,-243.95755250745148L249.61314177317814,-231.03819750534794L260.15893936945486,-232.63572779134097L256.21164633850645,-221.30951782786914L281.22191540446363,-234.60532382121414L316.51645451080947,-254.96325071496148L308.4815381989728,-239.87710992318154L296.26710898528705,-222.32436183693022L296.65652333340256,-214.75644538115827L298.5869048211203,-208.4368489792811L307.7524553726169,-207.0695865165636L306.88044957910046,-198.91619977904418L324.71836847032085,-194.98405033550532L323.94818013024366,-187.0315689873819L251.31855371971014,-139.40216526379982L289.6217640975215,-154.2072763584791L342.91193643910196,-175.09327807506762L308.81504401175204,-151.056912931843L288.191378332401,-134.88811668273274L296.1837968808,-132.47924502604874L283.52807821907015,-121.02127695766725L260.4140075610478,-105.90810979038031L262.6806434579715,-101.61051590099497L274.18855124017307,-100.68583391056497L294.6156499555332,-102.48261644768634L300.7955427785483,-98.87746945674243L270.03100879293277,-83.65629676979397L289.47447824953093,-84.26180175940381L316.0653834176585,-86.14502571680381L314.4614571360818,-79.93487269803501L338.6544221364753,-79.92152150088539L321.6113733239726,-70.0937019145634L331.9827898154398,-66.4058556683776L338.21039454631966,-61.633200251987226L347.46159845936296,-57.174673785956436L361.3060874065408,-53.09955257368594L305.72466653734756,-39.58217889014204L317.2553676865946,-35.54912566583116L373.4365669671509,-35.36483113473281L429.16798474649823,-33.220316247020385L394.23511629799526,-23.716205605430684L370.0672333399555,-15.892279283007989L441.79185736392213,-11.37899108048803L431.48013447055723,-3.703737991294032L369.87257423180205,3.1749112219434585L347.8419187410961,8.959173964112914L369.0239604994511,15.847476695089455L352.0199407428428,21.176645510684093L344.31670449547113,26.65229055703266L364.0803184373609,34.478784708242046L356.68948639871104,39.96780095326271L366.3067362943883,47.42574074967411L368.5380443892316,54.16240124109634L360.34132369014355,59.294027707550335L328.96455352697626,59.94830005728051L303.31217405291846,60.67092958108258L311.40853637344077,67.87004112147747L322.90152190096387,76.20387997279838L334.19641418890774,84.95142164238263L337.22254238706023,91.91150351067422L430.3428034285006,125.26651822218727L400.200037965705,123.98299478554009L345.436090037787,113.5517040508548L304.9714654929438,106.08490669224724L294.77345421555987,108.2448954460765L301.63704041968924,116.67968715725833L302.4915295961637,123.02067172304731L306.0975656948717,130.65484913136947L291.89428412906676,130.56060056758568L293.8659710990846,137.54411265986923L356.1854151856609,174.2281352743538L388.48254403429166,198.3619550632669L390.0896331396969,207.70075779353974L329.39399894791507,182.70929865451697L298.6268415012611,172.412287354372L304.12790755832464,182.62007021186716L330.62507378091686,206.334498994948L330.5393754215451,214.25162971666094L294.32360747848503,198.0340583860332L283.17453574044816,197.67781841860688L287.77503709412025,208.32693430858268L280.39793547236985,210.41583823023606L267.67683977203643,208.1471296659406L276.6690620978513,222.86501208316682L274.80713793895967,229.25388835662687L249.4945556313492,215.50745490152516L266.7754401268947,238.55224361539084L253.44488349303847,234.58480048323298L233.16830939153823,223.36996594956216L240.4227202414031,238.3678375796866L247.5920606302148,254.05126591472862L249.63730113556878,265.1061629325462L234.86022710305127,258.15253108181946L244.1811595653413,277.83333591103224L224.84637041831957,264.8684590260099L220.92844163403134,269.4967763740637L256.7734775800393,324.42490084678127L250.21559098304456,327.5402406786288L231.23525462265434,313.7150329642L210.38703401467075,295.93571088174076L203.2096697468147,296.48898120624233L192.6230454329553,291.6558416005394L194.87367782940188,306.37378926046193L190.6761068605656,311.455090748324L187.1559805489199,317.8317712375443L178.58638386368676,315.54502853148165L178.62857215913618,328.65645348291406L177.54736975125024,340.47049206610956L168.87535467644514,337.8638345397573L157.64137678155586,329.4098474650752L144.79361644986105,316.4001831019967L144.35886384798334,330.32133142123905L143.0856731815282,343.3535272093113L136.97793183861046,345.27386892913694L140.60791522506435,372.9792004591216L136.64521001694663,382.22097219883983L131.402131807523,388.4670541741966L127.88988755840329,400.6132513838139L130.15751779618063,433.25204544672397L118.31089870073455,419.84364171022213L106.9642775637078,406.1607845707376L96.12350684312769,392.21671030274985L85.10078512485302,374.96976156907306L78.43779044864458,375.35322227056787L74.82511694442528,391.5166301363425L64.16868922199183,370.1079474733827L60.698399770359025,389.72726886183676L50.139294484032426,362.7829582789902L45.53164730215614,377.06735638671177L40.9310369256039,395.9706529837969L34.39621105389583,399.736111215401L27.099241573180112,394.0170255673875L20.600201681329395,399.6384099892831L13.754764496284073,400.45496169176573L6.976986971786448,406.37451549528686L-4.0689294036421565e-8,409.5671077504726L-6.94113570806294,404.2863544255024L-13.700995483472864,398.8895332362294L-20.519567930326385,398.07413521983216L-27.49331593749128,399.74677918485236L-33.90383607494287,394.0139666872054L-41.736306175477225,403.7609017178713L-50.53900999958483,418.5355020578885L-57.64480039508978,417.08905961477427L-64.55514788385811,414.4903578686883L-70.23382333579488,405.0900288364537L-77.37340542081903,404.8503518195259L-86.12740150597133,412.1507944584793L-92.38092271397082,407.0473907012568L-96.49635072721978,393.738040245345L-106.69834129870306,405.1509809291451L-118.31089878415486,419.8436416867145L-125.50063980053704,417.75081286040927L-129.00137273634476,404.0949625969306L-143.11302710166098,423.0882349547874L-145.25765183002812,406.31150451674966L-146.6857870742293,389.1014774037175L-147.9525676965543,372.9371202447835L-154.13188786452787,369.8604210147639L-152.09496721128124,348.0230496784814L-162.82668306864446,355.8056879365043L-175.22131496942572,366.1451567201006L-180.3136874030891,360.74816205398776L-185.51416725888467,355.7478765793524L-187.10578206055695,344.2535647335588L-208.4178509623225,368.25437233832014L-231.39931548699283,392.96662631489346L-229.65996647952093,375.13229552943886L-223.17572773827013,350.8693124167963L-231.18015812627638,350.0362243727497L-231.25140686240707,337.40271355864627L-233.98404045034738,329.1278554347265L-238.36033522183732,323.3815730754129L-252.43427746511068,330.4445723688155L-259.68975562212137,328.1095227522883L-276.2072915446745,336.9279849239135L-295.4661573429959,348.05839032517446L-291.05720147809507,331.1696665669508L-289.3207577347239,318.0141942089828L-306.19122052927844,325.16446539274386L-305.89744459629173,313.8777261720968L-302.34192947172255,299.75782586954296L-282.5591735663397,270.68529646180076L-290.99595262612524,269.34150936566385L-288.96017808949597,258.38997299901246L-285.0556240135298,246.22425870734526L-286.43392210041986,238.95336512991705L-300.65881878750423,242.18946183088823L-305.59635752718896,237.63357593335851L-329.2582854800715,247.0815556760485L-364.74791770212533,264.0493637871887L-349.9614683821688,244.30028424053612L-337.2092829907424,226.88945470449485L-328.7868624370598,213.11567188043463L-339.4838489014974,211.8630297694693L-321.1374187688082,192.83379288554L-329.37418128024746,190.16427216809052L-330.3071620865652,183.2158147686034L-339.8556986469037,180.95401702286864L-390.3425688744072,199.31169690220344L-419.5022480036966,205.19957095433966L-392.6984620554094,183.8027086849806L-384.8337268323259,172.13123106202903L-380.0486523893377,162.22017055399058L-409.8617582974618,166.68720892101982L-387.82806874963234,150.0202284269435L-429.5555571274291,157.7387504744101L-392.25619656404467,136.44706700033893L-375.6924609891339,123.49757406974L-374.7647104476427,116.1030652189889L-373.69468691570285,108.77707701966308L-352.83854069942436,96.16771321762889L-364.55788660850084,92.66918912857301L-357.4562708040113,84.35870655331345L-370.5849906621846,80.76727383305867L-413.3868595608423,82.68894942500681L-459.4336433968314,83.72411429876762L-430.9222180000378,70.90808692309795L-391.78362043341974,57.578700335980294L-371.48469098436976,48.096130575790426L-367.5857560520083,41.188750621991055L-339.13032237367116,32.115994071284604L-339.6316644870166,26.28963876198163L-356.1893408016974,21.427466193878043L-367.459051244198,15.78027268505241L-427.69936657172616,11.016018465357519L-449.2314653871011,3.8561117721496614L-452.36405319468065,-3.8830014052766475L-465.279342017025,-11.983945460669359L-432.14196725260734,-18.55803553137609L-401.53156638878437,-24.155142003929218L-360.45406453981286,-27.901424321133216L-349.00636247507606,-33.0512654404638L-339.56677695261004,-38.04916567850906L-353.3618495887806,-45.74976603495923L-388.1676419223288,-57.04727613663055L-351.5831105236028,-57.852867099268394L-345.9152620449509,-63.03728384354195L-359.1174797135628,-71.83355367229785L-367.01399770794114,-79.98899265439059L-428.09024276535604,-101.02813173398535L-422.7507086816742,-107.46157706370708L-357.8759594749023,-97.54068421911573L-316.54525958473323,-92.14171173931585L-330.8763021081245,-102.50632424193714L-333.53194408847827,-109.63857486686233L-358.7230795132864,-124.78250832154272L-312.9077735007973,-114.90406871064044L-317.7065541583526,-122.8957203212653L-329.5759115892351,-134.03565413257752L-280.64686702648766,-119.7914592930098L-310.4821726490815,-138.87472671261256L-367.16279449143593,-171.85072703120906L-398.39663701780967,-194.875759156159L-376.39238281185953,-192.1886326434415L-313.1257150836761,-166.72180647212483L-296.5201272507101,-164.47471621418603L-281.896671331791,-162.75311913930346L-286.6707776539977,-172.13756532556397L-298.2905447259546,-186.15536145137375L-294.17473009587684,-190.68050599974342L-298.6554938693472,-200.9487449192859L-270.3308948383965,-188.71195962018177L-263.2452179970488,-190.56923700527025L-276.63944699339146,-207.59539844916296L-261.08214102005206,-203.01905206959367L-285.20778901523306,-229.743206110767L-329.73366976044144,-275.0755547941371L-341.55821028702735,-295.0298471571571L-335.66488940046423,-300.1536140182717L-324.33210570526086,-300.1969551475588L-289.3457044329447,-277.18663967822266L-234.1195671889841,-232.11855735175521L-237.02420977350528,-243.20772000561183L-223.15002243890217,-236.97759088790144L-222.21132965642818,-244.24917707391225L-214.53895660845848,-244.10595033394537L-275.8683216548549,-324.97218936460615L-263.95988160013076,-321.98813639199386L-230.52697575910278,-291.26330325573093L-216.93529470869973,-283.9752645950224L-226.89824904907192,-307.83105202065354L-219.1602799422259,-308.2763800494728L-218.55883104697384,-318.8838663302114L-207.8732466633271,-314.7465900492629L-204.12088220041164,-320.9119305245266L-177.0453867114092,-289.190333833484L-180.7976569457236,-307.0339477647284L-152.61243409920755,-269.65154812704645L-149.9556565200424,-275.90151825959185L-145.43876187159432,-278.898002833172L-143.19746501438726,-286.49085433956833L-142.54066067872185,-297.85515873027043L-131.5403988377707,-287.4395108635171L-130.76841208529376,-299.2237182265259L-113.160473576059,-271.5439421009975L-112.71821060399314,-284.123523861817L-116.84896190429976,-309.95575411883163L-106.23801774871883,-297.1666437197716L-92.7561775870394,-274.2171575136246L-87.87642401564277,-275.2716467976001L-81.18518700677461,-270.2390836802935L-77.66713808398087,-275.61327371267396L-84.0937518184913,-319.31767322534955L-80.96119203871665,-330.34929186554484L-70.88718329202109,-312.3420094250625L-66.26257303937093,-317.09039961919535L-64.14190786651149,-335.6175660987639L-54.892601845469606,-316.60594066691397L-43.82512710615573,-281.3887544050984L-41.13268746064415,-297.6156366663913L-33.45138496771292,-277.02545493409554L-29.22779163195388,-282.75237126429937L-23.02682334192535,-267.6065922676317L-18.787856628491802,-273.1713127947817L-13.504424606677635,-261.9822306377305L-9.256083766500282,-269.4807811405783L-5.041014363773172,-293.6138178019031ZM-3.920659868610361,-228.3587844141271L-8.718392847376805,-253.82649661238457L-11.703602404626134,-227.0467608775368L-14.703814045595161,-213.79022979312668L-18.192595512776332,-211.42553696555234L-22.624584447181906,-218.87233157623342L-29.758455042728627,-246.44269749383L-28.33758705798473,-205.03666389221002L-40.04872799473762,-257.1415630729549L-38.659449000901404,-222.97742874443747L-47.77405548563135,-249.97404595640592L-41.2713373810889,-197.49828995038303L-45.81115410794948,-201.85239790404685L-50.76084377639533,-207.12156495930415L-58.164958141463174,-220.8618202345189L-54.86697971261505,-194.70355507330945L-54.89635915213141,-182.7321256699002L-64.85280414290742,-203.1504854212378L-75.02253627413725,-221.79079800105146L-73.01859964745752,-204.24601895035192L-81.85515474224599,-217.13052305441926L-85.57042735602082,-215.69337579506396L-102.11425896918182,-245.03704826382247L-101.70575377064199,-232.72266844100858L-114.5936616034882,-250.40783158936244L-102.42234037306099,-214.02329906485332L-116.35239858460011,-232.78273865819452L-124.91822302275479,-239.54716383844277L-128.51330224044165,-236.450001470619L-127.66715564263643,-225.57563128594558L-124.10260509877104,-210.75335496632968L-127.42956548110939,-208.14661859451346L-134.0663034015698,-210.774496852522L-133.63641789141246,-202.34256939202783L-139.74679114299195,-203.89474473964447L-136.87328338043773,-192.52941425850622L-142.6364270821369,-193.5137075282822L-160.51726869878323,-210.12225747781588L-176.7378486365702,-223.30249826376837L-172.60082438449234,-210.5449413236022L-165.377076204844,-194.81378000423146L-184.8967536791774,-210.37856473259984L-190.58908610398672,-209.4907919958127L-177.69212526144554,-188.70287936331223L-195.11721509698475,-200.20745164777952L-198.5252912619937,-196.82850416502578L-202.6289201065858,-194.11392187779288L-209.7630276056784,-194.15352683888352L-232.91452434691038,-208.27360396536963L-224.99693076024195,-194.34699004085056L-215.06952299067768,-179.41864535384684L-228.68954879648726,-184.21611249096534L-221.1017799615122,-171.9300814805197L-219.84451029360272,-164.97541911422277L-222.64413814649714,-161.177186249019L-229.23124401467476,-160.0212113751975L-232.3776317881423,-156.3540414078947L-241.59933929435934,-156.60177286756632L-237.16499668820143,-148.0084986356743L-230.27081956017173,-138.27101097989245L-241.20166285312257,-139.25784503048587L-257.71069540738324,-142.94777857238486L-255.5179920032971,-136.04893868756707L-272.6960001884832,-139.24052078853316L-260.97565921901895,-127.65627263392751L-239.48445694547286,-112.0908181771499L-231.36449325227113,-103.48639503926213L-247.99314044974312,-105.85352512175827L-272.9888991853192,-111.02220880402372L-280.211022074424,-108.39164300850467L-266.3466834164955,-97.80619148492397L-249.24731515681154,-86.70115460615372L-251.19493468378633,-82.57276444021508L-251.07919609918852,-77.78497680785212L-277.94433061992333,-80.90554388701149L-265.18745347873,-72.27801972670437L-281.0638374797443,-71.44532844271036L-272.0857147088703,-64.21148786521196L-257.8436424141244,-56.19582181564966L-249.55476950560174,-49.917943130356456L-284.27632195793154,-51.80461564870642L-280.48702721950144,-46.15403363555294L-271.93976176028735,-39.96578026143876L-276.7281203194755,-35.82799550840935L-304.80248808525465,-34.15375459418454L-319.3782421421455,-30.24545163615064L-314.6447844064231,-24.355496313693056L-325.4400153928408,-19.57766323647763L-329.90122903833293,-14.167378302231034L-305.5644463605512,-7.870256272350218L-288.94738917265704,-2.48026586172086L-300.95564244022097,2.5833421857673877L-289.3841791557442,7.45350989578189L-295.4732253577161,12.688891596190674L-314.49534025522735,18.919258662495448L-314.64478441368203,24.355496219915935L-313.66053471832765,29.703978703238015L-303.7647481292095,34.03747357575983L-298.4755299884983,38.64363300131007L-308.6161150693828,45.35594109007478L-330.9755501618343,54.461900779257235L-316.6367655208141,57.70176635662453L-304.33612462772567,60.875748310622726L-293.04342988770793,63.86745157818505L-287.83861495631805,67.92912934272051L-291.6903528419877,74.14654700234937L-294.404482566656,80.24125083765485L-293.484964384464,85.42919579202729L-276.51452366506845,85.66490622005425L-280.4592934755817,92.19254035163982L-298.5607225555461,103.85491745203024L-315.35835722395916,115.80395689168836L-304.55877021598326,117.80987493900702L-297.6550328333615,121.05371052519294L-299.85494152154257,127.9902440102592L-312.38862279667325,139.72745750320337L-309.94398400481515,145.06943445238426L-283.4883109133921,138.66833860085993L-272.23099402980694,139.00308522822738L-278.1002194949374,148.07270277622837L-276.43053904809875,153.33136017604272L-286.87050575076887,165.62476366710442L-279.50887826353414,167.8370504047132L-268.61364826483367,167.6347830477516L-256.93382832777144,166.5414032878744L-254.03706389176702,170.92747385224362L-255.77476855821035,178.55065287385193L-264.9369297146508,191.7939057078188L-252.418076986701,189.41923071638394L-245.4197315900795,190.83986764196587L-245.7670027345367,197.97250041794447L-247.54433385065585,206.51028746420656L-246.33357182178167,212.77707228702826L-246.53673190077544,220.45466583072334L-245.78140005261304,227.4915945282243L-250.511666306144,239.98450945815L-249.32128927314247,247.1903508259462L-241.7615222891335,248.06861983487724L-229.59287408002876,243.81967591744663L-229.2384949654023,251.9732625785008L-226.60264392396377,257.83221184835156L-226.87373277349417,267.2566866754157L-211.99114260888658,258.59472464135706L-199.09597986488467,251.55126654446218L-200.13666906472827,261.9853242139581L-198.0881408831211,268.7446069697382L-193.44559359776554,272.10545318214116L-189.04121318761221,275.8167795358294L-184.27859574145955,279.02128110328124L-176.93970570936972,278.1786062070535L-169.95741233267776,277.61266017726257L-163.31226720642482,277.3399331146793L-158.2701262036321,279.64814777579534L-152.94761301502004,281.40638102177087L-148.0943611013789,283.99046430599884L-145.5318187037555,291.161125225009L-140.5122063687543,293.6164691547474L-136.9720454764264,299.3086387951793L-133.27741864939307,304.9648160100139L-128.62517411767843,308.65359343470715L-125.23314623792072,315.6693367630665L-118.32238545729885,313.8641848652263L-118.01421368194293,330.10675934359915L-108.98413246940078,322.19222231812023L-103.5959990599526,324.51299143058543L-99.81269941422974,332.24401389790955L-90.83741599705445,322.34994345864976L-84.09375191366085,319.3176732002862L-79.59409818125037,324.77108198186926L-75.27837744154544,331.6904206367213L-68.61217648971596,328.3341022171815L-65.02400779682453,340.23308512897233L-59.08467987942584,340.7847321897241L-52.342112436326126,336.0739093088005L-47.42301625248641,343.12932159151956L-41.46316524629008,343.37448801248325L-34.91836052601397,337.8034623671848L-27.861051267576297,323.7876475614073L-21.940450998086305,319.0093417719763L-15.95031754049316,309.4318985162248L-11.012540864527436,320.61811059606214L-5.498119093243402,320.23787142247704L-3.18193843840199e-8,320.2850661625709L5.740115601969619,334.33295863530503L11.299309291851412,328.9670623465918L17.186702873846997,333.41744492179225L22.871899244426405,332.55239579416457L27.816289834401623,323.26745261044675L32.234129893399306,311.8359665662327L37.081722890578966,307.08986054965555L42.34786462429836,306.4080530709052L48.32466650377696,310.2790249237024L52.75196633575367,304.2593237048631L60.02544202946911,314.07847719472255L64.12657002214092,306.86885177788344L71.00274106127739,312.85117813469526L79.09697304224198,322.74264204865955L84.75859271397877,321.842182267976L92.11195894800328,326.8728470029961L94.85537752255703,315.7427018362744L95.65681972654274,299.6436254601089L99.11352072832169,293.01151280073816L102.37120720453346,286.3504863290339L103.77232872898468,275.2684309212944L107.90477388491998,271.99051887472245L116.97643864995779,280.70086905130955L123.65956043931726,282.95727438181194L128.49867679797504,280.7927991861592L133.5253078287646,279.01653856747316L138.06188711613012,276.216258282459L140.61039981630216,269.6389818792665L146.96370013579832,270.3966554372278L146.95474210392553,259.6549484165272L154.30464209000314,262.0430165351937L148.42087448724448,242.4343442577943L162.6485715769014,255.71056977454126L165.00003937413427,249.83108973082412L165.72229495559174,241.79378105265567L173.4788958457698,244.01979240563563L186.00648253136524,252.35351717499412L187.77541612125265,245.8040474146652L172.8494780229029,218.3896689700688L172.93183548231778,210.94872099869872L172.81073799846317,203.57061486757783L186.2754608132235,211.94728032345895L197.61625135944215,217.21487754909123L208.11670213445623,221.01272563862125L205.68506594942235,211.05099756105963L212.61469217070285,210.7974835303169L207.1532740911547,198.4481506120178L223.17412372481346,206.56663715384784L222.79517023264066,199.22481507438914L229.34328357583672,198.10126604613177L236.31847328577913,197.14527540147205L237.22827575499463,191.0943064675113L240.06153883256113,186.67330462262277L239.889782087883,180.01776473801635L245.4822455800873,177.7102147750226L244.64361309053686,170.78024194276207L247.53923424156605,166.55544414734612L250.8000327007754,162.56555114078094L257.5401793834199,160.72411954865504L256.2327050472184,153.86037724053926L262.9056673901588,151.7886578624031L256.34095076821524,142.18800427720763L269.3438455568355,143.4104269291024L261.0708451991059,133.30463378334684L236.58695327305153,115.72653438804774L251.30652524845132,117.62414304607769L249.4757692698558,111.58733840958185L255.6763702433486,109.13303901900497L257.51210947841327,104.7279331330244L267.5501930693534,103.4941623308624L242.3309632765911,88.98728636547956L271.43834848169365,94.42034789987396L268.55514751884704,88.2794111902377L280.504378948617,86.90097364630387L263.4063184200148,76.67374038400105L263.1724859642001,71.72883134202833L268.41322398635043,68.22959193202668L245.15333690682078,57.855520006834034L261.4146353499562,56.97410307879651L281.29723695461973,56.26732559587026L282.7353484608748,51.5237989157466L282.5477832619204,46.49313022961927L270.39005669540796,39.738026956240596L271.5501656426099,35.15760558098907L277.8212489674148,31.130450441436402L276.7553321921123,26.20901771473142L271.9588642842195,21.051336097923674L273.32251471232127,16.442403779562724L257.39376673440984,11.053595853949759L276.85752067137054,7.130867665245388L283.20431152356224,2.4309684183164806L309.83130789804466,-2.6595291284090634L267.4625268098854,-6.888885922647185L277.21595067517933,-11.904845695396649L272.2801647002992,-16.37969856402075L270.39718428173944,-20.930452161871163L239.85012967405544,-22.714056640074226L250.84000984897423,-28.10714629404929L260.15866534902096,-33.6827477753012L267.29064656161086,-39.28252037332218L231.028882319854,-38.01571465836855L256.53879892806174,-46.74991491005779L235.73143691863922,-47.15288941701154L271.1073304522161,-59.08658083564799L241.0880723376161,-56.89612861211326L245.64211969166857,-62.44126623865348L218.33945861205402,-59.509390347483304L211.77130954964034,-61.64354181241209L235.6185068244608,-72.99521569568233L253.67496510411073,-83.38799964362612L216.70046630905327,-75.379671026089L206.06232469080297,-75.66893987805295L210.08950754400354,-81.26713474549454L218.8201351924153,-88.99224400158812L216.78001947565193,-92.53049976793024L244.23303148912078,-109.24232845567711L250.36075979674553,-117.18147702978747L226.26865460923383,-110.67933742635795L208.525144595173,-106.47442462164159L203.4406103601572,-108.32066616990438L213.4222849744025,-118.38174380933545L212.71515694245642,-122.81115311204844L211.91845226921075,-127.25094166657489L202.6059244759944,-131.32671242094503L209.41863384029736,-140.90620289501825L193.69717093353182,-135.2156685832351L208.26458906271657,-150.7675015647992L209.4042646079527,-157.1408640478102L207.08804518948426,-161.03291649062487L184.36948994942583,-148.5150102632647L174.97716400927456,-145.97217348681065L178.76754196165584,-154.4151449795412L172.5876055014351,-154.32890105910846L174.12782943281505,-161.1701193370386L155.87726249943668,-149.3268913805023L190.36826973289342,-188.7412002719086L182.36291240652773,-187.12041341568312L193.79925422348447,-205.80809206973862L179.34562176895432,-197.13225504352027L182.82869305102602,-208.0254912822256L152.87500871264305,-180.08637585662726L163.33251427176884,-199.23910990739918L169.2851382946209,-213.88624211678817L156.07989590713845,-204.3135939656751L142.63642712058686,-193.51370749994123L134.15055191404838,-188.69955139317975L138.56608646549972,-202.17206124259067L146.87244167012608,-222.3835963017321L132.38499355175207,-208.13119841808975L139.96982803529392,-228.63019494578276L146.62166779773537,-248.99564646927115L118.40911419517005,-209.21755903273146L102.83234308269869,-189.19992901688204L108.74321008922058,-208.5294436680497L101.17910020798472,-202.42597760079258L106.02848156815395,-221.55874710359893L83.30737751482967,-182.0416544512935L86.65171497079417,-198.2760814845307L80.82519085628263,-193.951034670662L86.91818968845908,-219.09061717117876L91.24822934436416,-242.04676926936787L89.1888984553132,-249.47722252409415L86.5661330286681,-255.91739049675266L84.22440160549269,-263.8317384246146L76.82875272739001,-255.73793062330574L72.99381374877099,-259.0292941012822L69.73318921921056,-264.7882777088801L63.43753322188751,-258.8467836480845L55.980235116398354,-246.65924496135426L49.17454870439582,-235.3180169298949L45.323778230225344,-237.15315969854439L39.016221635605014,-225.03519822948687L36.593724599060984,-234.95796248521233L33.91310571795468,-245.37833917254508L27.755510044340394,-229.8554392156287L23.268799827008603,-225.10453056556767L20.609709474941244,-239.51606461249696L16.710010450380384,-242.95988459763703L12.402428978601748,-240.60380884171482L8.664623805587196,-252.26106815784365L3.9833997664389877,-232.01306628305107L0,-221.60491493383745Z"/><path fill="none" stroke="steelblue" stroke-width="1.5" d="M0,-278.51568998109644L4.682500979511214,-272.7322071168844L9.489083219679156,-276.26430443424346L13.988227640252255,-271.367879227242L18.572907072522096,-270.0459926331095L24.593471306309354,-285.81341574027084L28.690945574520168,-277.55887209696726L33.63916112094593,-278.58051039047587L40.775282480084364,-295.02963183219504L44.789314170466504,-287.5795266512144L49.7193993475863,-286.7682830114107L54.928865266117,-287.41103379215144L60.92256547800636,-291.5365300197374L71.00274109235816,-312.8511781276414L81.58259844770507,-332.8848417856772L86.75311533799828,-329.4157094123L92.39519076168757,-327.8779366663275L91.0998307150636,-303.2417078261123L92.79871521860669,-290.690653694108L103.63058033978633,-306.3653968167815L102.89849958408823,-287.82541687065446L99.72041424069515,-264.52024626222646L92.88685125660545,-234.13554334069744L97.49493290733619,-233.9523471852686L98.5694957239475,-225.54629614241077L101.12317820475938,-220.97239419750593L115.04383444957367,-240.39736725133957L121.02110583788894,-242.12328049177856L117.43426184027585,-225.19568135820813L123.02804886505453,-226.35775296527402L144.38306393741954,-255.11103944974778L159.60324509417487,-271.0412027616522L157.68976419472344,-257.57437895618L153.68158551325263,-241.61297825014768L158.66976717618883,-240.2462507449176L160.70429992809227,-234.47237629172196L168.33595858346328,-236.7856070274874L164.0116687282552,-222.51332797353828L168.12419359778144,-220.0799662692025L175.11769424913086,-221.25548603042043L177.23497950360513,-216.19785698026163L180.2443997938225,-212.32744972944715L197.9944712973426,-225.28136298222626L196.56217659571024,-216.05626469373138L214.55955372623103,-227.85481071463863L202.7697967749069,-208.0596745250076L214.46856072987416,-212.6355071123014L216.95604103658502,-207.83897955823423L210.52937599288867,-194.8628473877462L215.4002576146892,-192.61223857264434L218.6749630946248,-188.8862248656694L227.09723073144278,-189.4525868584048L248.2066389836943,-199.93769872762286L254.075273657296,-197.57046954473648L244.4834902218762,-183.4649689241856L248.0198130887667,-179.54721792239607L244.21549174469692,-170.48137995765728L251.00474338700513,-168.88719332527526L253.4288022573402,-164.26948777195133L262.49936707367675,-157.62332769669047L258.8361665569048,-149.4391304262111L228.48947616229586,-126.7392607731586L245.83989455180173,-130.89589685091443L271.76598781584545,-138.765649776195L260.9756592443835,-127.65627258207323L263.601476284225,-123.37880090831834L269.0168828686375,-120.32782993879019L252.31495722394655,-107.69825165311399L241.0680204128467,-98.04026523745372L236.87203046315386,-91.62718996357346L240.3704963343706,-88.26737572176404L255.6580581322932,-88.93114373688768L269.54715968918447,-88.60550526488636L253.07412376499008,-78.40301044342013L248.8683062192655,-72.4419368838791L260.6537765691198,-71.04234586822001L276.00359209361557,-70.15903379426298L286.82229880583134,-67.68928152872519L292.53328803417344,-63.756268566096956L290.51279202479697,-58.11069467709754L291.98118947938116,-53.20869911504603L298.5186425600118,-49.121129019934976L321.53032397214747,-47.25388510430128L278.7993021987909,-36.09615141319063L280.4155988860396,-31.42115273304591L303.2647030194159,-28.719482664775967L340.6727844874523,-26.37022806841262L324.3976653830753,-19.514957983426708L312.6872271988017,-13.428134931113341L353.5833038799934,-9.107051644335028L363.60739861464896,-3.121132187967655L318.7069733558533,2.735716072814279L298.7791730164328,7.695491669307418L309.55740868069074,13.293727088127184L303.029490101326,18.229501651575426L303.713024376927,23.509308918108193L312.6209515428394,29.605529158494715L310.5100579027547,34.793299666732835L314.5271894901378,40.72184175039267L313.2652302669204,46.03920098594074L309.3376117537589,50.901386314734616L302.25434615545095,55.080810508838695L291.5367425817354,58.31551349596901L284.8811603201632,62.08852297638145L282.7570342242494,66.72989018645077L294.7265000673733,74.91832381616905L296.9231919528507,80.92773634406421L345.11997324398834,100.459394400891L328.88137446802335,101.88829052341183L298.8115184456557,98.22528128377087L286.72550476623417,99.73801440816177L278.10948513214925,102.12565517747561L280.2110220851924,108.3916429806666L279.27634501926025,113.57925825722903L275.84484842395784,117.74176306395078L268.06365780366735,119.9014645237633L270.6947172470732,126.69879587013828L302.7178675070826,148.07447840753463L321.0566450156715,163.9338105903165L320.96036543958536,170.89331645893822L285.10558848897205,158.14326393827318L276.4706702171596,159.62041589732797L278.16602208501473,167.0307039283436L286.77413714241874,178.96827132717223L278.84024113005705,180.74087547515634L262.2676480383739,176.4653782595254L256.63101124828705,179.14837684635822L262.39936218570045,189.9569025884466L257.8470047222431,193.49319937889726L252.42659895471428,196.2884501644069L251.86609336677648,202.8854961805381L246.74248662934886,205.84135807682648L236.45549724248818,204.24462681862354L237.97420143508228,212.79799837615076L233.90300060469073,216.4971254224907L219.97227699279293,210.72846541602513L222.62558227615494,220.72281098809L225.3631330169249,231.24242791843466L222.79208626415985,236.59747502699133L215.53552270778238,236.91129575823405L207.99009784526763,236.65455116879886L195.44961703827082,230.23915745598657L197.75766625044542,241.2321979169909L218.53783299416244,276.1154129647269L220.7387571650413,288.9541189854886L203.3545047033665,275.88944103934705L189.81528487134892,266.9989694360428L182.5473371847233,266.34202049166703L174.20770806040795,263.7726736873959L173.85730418646673,273.3325591609484L170.23002667992634,278.0579553496806L166.2264987888036,282.28893558040164L159.04162960562292,281.0113204929732L160.4275039882412,295.16853807082674L156.54399469020134,300.19375097947335L149.73365513140098,299.56761292537504L142.76604453030146,298.3261242198254L133.49579162455342,291.71239692034936L132.65016697035406,303.52954158075505L128.42433379072327,308.17164993597186L124.07792135584714,312.7574155937345L122.00594404454412,323.63526184251884L119.9476189032069,335.5148380571395L112.83199797440722,333.5677531770262L111.8527454351623,350.37713208187193L110.77889611406384,368.7469164009878L103.2996143018723,366.5738890671629L92.73668307915086,352.1362908797466L84.19250505564575,343.5341515261611L77.01174344903093,339.32795140180707L69.35977749153405,331.9116439729695L64.9259966370705,339.7202496919477L58.46032777887276,337.18363558912296L53.386648294651444,342.7805792620301L45.85043401078432,331.7509003662829L41.588349243420126,344.41119166275223L36.314160352952065,351.3065601942257L30.860062915528196,358.6407096521943L24.87809560383494,361.72205060179573L18.503722098781154,358.96726608956436L12.267152949073044,357.1447744972442L6.233071582693718,363.04517332587756L-3.493163338486259e-8,351.61209829867676L-6.089666276958243,354.6925290510464L-12.069999681312638,351.40487016786125L-17.670505922548028,342.8030935105241L-24.233246844034163,352.34609012309926L-30.725778879957485,357.0801247766004L-38.19312182221285,369.48380725216015L-45.71942347542141,378.6224118406733L-51.497433707929716,372.60977660778195L-57.96653665558428,372.1867474613804L-63.276757819020595,364.96352372889436L-68.8464403947276,360.23366767604847L-76.62218793007665,366.6649065958238L-82.55851495615893,363.76804978581407L-87.05097430447216,355.1976812157556L-93.26855584053091,354.15589810199947L-102.73315081208763,364.56370970172935L-110.47845244012342,367.74683685894746L-115.02841721432904,360.3248784554407L-122.20071421424664,361.2646977999668L-128.73582482409262,360.0970138956133L-131.03066280514432,347.5744003532516L-133.7047949174112,337.02342551896095L-138.46634713811636,332.2688261230754L-140.38627032832858,321.2312598403238L-146.9662751339224,321.1478342615738L-157.19060920284312,328.46791642641057L-160.93855249003747,321.98491335059686L-162.82086546013923,312.2304781684154L-167.4087356766342,308.01321792165186L-181.4152299384123,320.54332834311447L-191.65979314424885,325.48022950543L-193.9474797524138,316.7986323735708L-197.67586104354328,310.7792865677867L-206.7222881710038,313.0038919929655L-207.04696013979742,302.0877024406674L-208.8744054595691,293.80800926334905L-214.19701861860761,290.59939341200806L-221.68962282973433,290.19883254444477L-225.6665125498762,285.12226659281373L-238.14101769098576,290.49332032342903L-255.2568050091501,300.6918743925573L-253.1427558580178,288.0299873207159L-251.72542372117175,276.6903364051139L-259.65951474235106,275.74940636569414L-266.1769018037904,273.1209500882506L-267.48920094957896,265.2029821345912L-264.46175770175864,253.34838144797445L-266.0896312932583,246.28859017554885L-263.27258681926145,235.41997049344283L-261.3482451206228,225.74638947041646L-263.581277458806,219.88887619233466L-268.5369412453974,216.3143510781286L-272.6228638630194,211.99318782848582L-284.9916436306298,213.86304238406785L-303.00044208275546,219.34895328045985L-298.15878347899167,208.1379869888598L-287.82577790072577,193.6620285734707L-288.47906281477617,186.9886431577789L-294.7470347496034,183.943949026385L-293.3850584319589,176.16929789832218L-304.50500942789296,175.80604910900288L-301.0859428114647,167.00729702348573L-301.1433087307458,160.3418498831837L-327.10172565052676,167.02047175393278L-341.17698078272815,166.88675784043926L-338.7898306395936,158.57074718488923L-338.1256992303919,151.23932442541772L-326.26604390315174,139.2635731114881L-340.2162045611236,138.3629685374031L-340.1064824554943,131.56049367947114L-354.07757950882666,130.02219162574423L-336.5320462326745,117.06331490055535L-317.65974953556304,104.4210691477727L-316.91180858582237,98.18008834651977L-319.05181344129636,92.8713329333362L-315.0578996653069,85.87043150643878L-319.0156780044302,81.09253779968324L-315.7873089097715,74.52494501120673L-323.6519407197382,70.53843404721411L-346.31809770056867,69.27331869268606L-374.68010077257657,68.27919555612874L-373.73623794828217,61.498155675848885L-341.1599215161799,50.13875992542912L-328.50766713573626,42.53189441492611L-329.70824728481875,36.94449676528472L-321.45740849037156,30.44235075468085L-323.4943044396546,25.04050503689753L-330.13059046015366,19.859836486763925L-330.4228654620226,14.189779516145288L-355.14913619126776,9.14738189490087L-362.56320267871337,3.112168985743121L-369.8725742314866,-3.1749112586893813L-378.63662084390523,-9.752336293149826L-366.4157784005738,-15.73547016978284L-355.6681657884897,-21.396113705739225L-330.2615844518969,-25.564335407138568L-329.77407383791063,-31.22994770783947L-321.40632754429004,-36.01424944042908L-316.0805758901997,-40.9229587517728L-325.14630245668855,-47.785309484304335L-318.09582490935213,-52.342546989547344L-308.4182401586808,-56.20407735835034L-300.752297640163,-60.15888263593656L-310.89839451953065,-67.75885811111253L-342.71968669535727,-80.88091293934714L-348.365101300661,-88.55304653768381L-305.99054579226237,-83.39908398695067L-294.98889665633294,-85.86696865296408L-286.9878938032097,-88.90958315319038L-289.8834089823765,-95.29043439972403L-295.10878400884826,-102.65415413557344L-287.9118198765932,-105.72520830525582L-293.8457610140344,-113.66585294041761L-291.3675869746252,-118.49666113295571L-269.1220223523426,-114.87218840903867L-269.9701078977027,-120.75419543408974L-296.23038474367866,-138.65077766784285L-320.5403833843651,-156.79236406165242L-312.68653339749835,-159.65997199715255L-274.4133251736614,-146.109639320902L-270.4949788381262,-150.03900508968408L-258.3839997663381,-149.17807187643106L-252.20413659665957,-151.44133766987582L-259.31193438303956,-161.82982574281178L-260.8769825882491,-169.0973083493646L-252.30430927660916,-169.76159932635218L-243.3592489853291,-169.88365608441083L-233.21733602424493,-168.8313661334594L-240.30739189867367,-180.33114696284093L-238.4128641311892,-185.3912852407373L-247.80003289922863,-199.61016572931555L-269.19420765472694,-224.57138232741036L-278.33853325555054,-240.42219583983828L-276.116382380791,-246.9049718285216L-258.8093219091786,-239.5500446432663L-234.6764273576315,-224.81470889099523L-210.76082361189663,-208.959459947964L-208.60033512334354,-214.0423205976908L-198.81036095805922,-211.1297138511135L-197.9676095995564,-217.60108184736927L-193.51367313536372,-220.18303729113046L-213.69587773191304,-251.7332067275758L-216.29428653110202,-263.84386070413734L-199.4200106761924,-251.96066904351167L-188.09237129913566,-246.21895196768648L-181.97926307405143,-246.88982058170558L-174.08394726683463,-244.87087305368598L-175.46310885228712,-256.00591969267293L-167.30195652053655,-253.3164857365879L-164.32988144266946,-258.3538681988279L-150.05656087734505,-245.10611510459347L-144.76715670653877,-245.84628131340955L-135.8965258551135,-240.1161399345562L-134.74654476358143,-247.91846565345995L-131.67792993766665,-252.50979315435356L-124.7560715539248,-249.59571400192894L-122.25611670394949,-255.46826339382355L-123.06703022062943,-268.92367122643975L-115.08712162774786,-263.3418568314626L-108.34030720214896,-259.97729751750296L-99.62566265461642,-251.12175032607792L-96.22103347193122,-255.23772317559906L-89.18889840574346,-249.47722254181548L-85.8969389660112,-253.93903732479913L-78.3494088958902,-245.42840760738122L-67.06433090199482,-223.2353462347108L-66.47948273405603,-235.91223164739577L-68.53647561227443,-260.24416143085114L-63.934658244733036,-260.8752236097631L-58.52250530724846,-257.86095673958476L-53.126154295915,-254.22788043430685L-53.0666544590896,-277.66716025393487L-48.02472948815228,-276.9938779304816L-41.65570634002192,-267.4595168313138L-37.63011807667593,-272.2727893706657L-31.385847891026785,-259.9198448403876L-26.11408417897197,-252.63007612683737L-20.923039008869758,-243.15742931209712L-16.63836053223041,-241.91811121496326L-12.644330420623188,-245.29663314032456L-9.023084368213443,-262.6972578450277L-4.49428137013372,-261.7693615086684Z"/><g font-family="sans-serif" font-size="10"><g><path stroke="#000" stroke-opacity="0.2" d="&#10;              M1.168313046386575e-14,-190.8&#10;              L2.8595502760090695e-14,-467&#10;            "/><path id="O-month-1" fill="none" d="&#10;              M1.168313046386575e-14,-190.8&#10;              A190.8,190.8 0,0,1 96.8147998032327,-164.41269579646206&#10;            "/><text><textPath startOffset="6" xlink:href="#O-month-1">January</textPath></text></g><g><path stroke="#000" stroke-opacity="0.2" d="&#10;              M96.8147998032327,-164.41269579646206&#10;              L236.96284857499825,-402.4147218917598&#10;            "/><path id="O-month-2" fill="none" d="&#10;              M96.8147998032327,-164.41269579646206&#10;              A190.8,190.8 0,0,1 163.57563104016361,-98.22246652274758&#10;            "/><text><textPath startOffset="6" xlink:href="#O-month-2">February</textPath></text></g><g><path stroke="#000" stroke-opacity="0.2" d="&#10;              M163.57563104016361,-98.22246652274758&#10;              L400.365931319478,-240.40823829204987&#10;            "/><path id="O-month-3" fill="none" d="&#10;              M163.57563104016361,-98.22246652274758&#10;              A190.8,190.8 0,0,1 190.79297116614396,-1.6377281810366369&#10;            "/><text><textPath startOffset="6" xlink:href="#O-month-3">March</textPath></text></g><g><path stroke="#000" stroke-opacity="0.2" d="&#10;              M190.79297116614396,-1.6377281810366369&#10;              L466.9827963028785,-4.008485642264724&#10;            "/><path id="O-month-4" fill="none" d="&#10;              M190.79297116614396,-1.6377281810366369&#10;              A190.8,190.8 0,0,1 166.85096674808293,92.54941866500367&#10;            "/><text><textPath startOffset="6" xlink:href="#O-month-4">April</textPath></text></g><g><path stroke="#000" stroke-opacity="0.2" d="&#10;              M166.85096674808293,92.54941866500367&#10;              L408.3826072922155,226.52294819998278&#10;            "/><path id="O-month-5" fill="none" d="&#10;              M166.85096674808293,92.54941866500367&#10;              A190.8,190.8 0,0,1 96.81479978689876,164.41269580608036&#10;            "/><text><textPath startOffset="6" xlink:href="#O-month-5">May</textPath></text></g><g><path stroke="#000" stroke-opacity="0.2" d="&#10;              M96.81479978689876,164.41269580608036&#10;              L236.9628485350195,402.41472191530147&#10;            "/><path id="O-month-6" fill="none" d="&#10;              M96.81479978689876,164.41269580608036&#10;              A190.8,190.8 0,0,1 3.275335698349115,190.77188518244276&#10;            "/><text><textPath startOffset="6" xlink:href="#O-month-6">June</textPath></text></g><g><path stroke="#000" stroke-opacity="0.2" d="&#10;              M3.275335698349115,190.77188518244276&#10;              L8.01667594931361,466.93118647903964&#10;            "/><path id="O-month-7" fill="none" d="&#10;              M3.275335698349115,190.77188518244276&#10;              A190.8,190.8 0,0,1 -93.97817138479826,166.05042397768665&#10;            "/><text><textPath startOffset="6" xlink:href="#O-month-7">July</textPath></text></g><g><path stroke="#000" stroke-opacity="0.2" d="&#10;              M-93.97817138479826,166.05042397768665&#10;              L-230.01994778145067,406.42320753448456&#10;            "/><path id="O-month-8" fill="none" d="&#10;              M-93.97817138479826,166.05042397768665&#10;              A190.8,190.8 0,0,1 -165.23764705470785,95.3999999781122&#10;            "/><text><textPath startOffset="6" xlink:href="#O-month-8">August</textPath></text></g><g><path stroke="#000" stroke-opacity="0.2" d="&#10;              M-165.23764705470785,95.3999999781122&#10;              L-404.43386359826286,233.49999994642766&#10;            "/><path id="O-month-9" fill="none" d="&#10;              M-165.23764705470785,95.3999999781122&#10;              A190.8,190.8 0,0,1 -190.79297116630667,1.6377281620819555&#10;            "/><text><textPath startOffset="6" xlink:href="#O-month-9">September</textPath></text></g><g><path stroke="#000" stroke-opacity="0.2" d="&#10;              M-190.79297116630667,1.6377281620819555&#10;              L-466.98279630327676,4.008485595871453&#10;            "/><path id="O-month-10" fill="none" d="&#10;              M-190.79297116630667,1.6377281620819555&#10;              A190.8,190.8 0,0,1 -165.23764702627477,-95.40000002735972&#10;            "/><text><textPath startOffset="6" xlink:href="#O-month-10">October</textPath></text></g><g><path stroke="#000" stroke-opacity="0.2" d="&#10;              M-165.23764702627477,-95.40000002735972&#10;              L-404.43386352867043,-233.50000006696536&#10;            "/><path id="O-month-11" fill="none" d="&#10;              M-165.23764702627477,-95.40000002735972&#10;              A190.8,190.8 0,0,1 -96.8147997705649,-164.41269581569858&#10;            "/><text><textPath startOffset="6" xlink:href="#O-month-11">November</textPath></text></g><g><path stroke="#000" stroke-opacity="0.2" d="&#10;              M-96.8147997705649,-164.41269581569858&#10;              L-236.96284849504093,-402.41472193884294&#10;            "/><path id="O-month-12" fill="none" d="&#10;              M-96.8147997705649,-164.41269581569858&#10;              A190.8,190.8 0,0,1 3.791085537753735e-8,-190.8&#10;            "/><text><textPath startOffset="6" xlink:href="#O-month-12">December</textPath></text></g></g><g text-anchor="middle" font-family="sans-serif" font-size="10"><g fill="none"><circle stroke="#000" stroke-opacity="0.2" r="456.035538752363"/><text y="-456.035538752363" dy="0.35em" stroke="#fff" stroke-width="5">90F</text><text y="-456.035538752363" dy="0.35em" stroke="none" stroke-width="5" fill="currentColor">90F</text><text y="456.035538752363" dy="0.35em" stroke="#fff" stroke-width="5">90F</text><text y="456.035538752363" dy="0.35em" stroke="none" stroke-width="5" fill="currentColor">90F</text></g><g fill="none"><circle stroke="#000" stroke-opacity="0.2" r="429.9296786389414"/><text y="-429.9296786389414" dy="0.35em" stroke="#fff" stroke-width="5">85</text><text y="-429.9296786389414" dy="0.35em" stroke="none" stroke-width="5" fill="currentColor">85</text><text y="429.9296786389414" dy="0.35em" stroke="#fff" stroke-width="5">85</text><text y="429.9296786389414" dy="0.35em" stroke="none" stroke-width="5" fill="currentColor">85</text></g><g fill="none"><circle stroke="#000" stroke-opacity="0.2" r="403.82381852551987"/><text y="-403.82381852551987" dy="0.35em" stroke="#fff" stroke-width="5">80</text><text y="-403.82381852551987" dy="0.35em" stroke="none" stroke-width="5" fill="currentColor">80</text><text y="403.82381852551987" dy="0.35em" stroke="#fff" stroke-width="5">80</text><text y="403.82381852551987" dy="0.35em" stroke="none" stroke-width="5" fill="currentColor">80</text></g><g fill="none"><circle stroke="#000" stroke-opacity="0.2" r="377.7179584120983"/><text y="-377.7179584120983" dy="0.35em" stroke="#fff" stroke-width="5">75</text><text y="-377.7179584120983" dy="0.35em" stroke="none" stroke-width="5" fill="currentColor">75</text><text y="377.7179584120983" dy="0.35em" stroke="#fff" stroke-width="5">75</text><text y="377.7179584120983" dy="0.35em" stroke="none" stroke-width="5" fill="currentColor">75</text></g><g fill="none"><circle stroke="#000" stroke-opacity="0.2" r="351.61209829867676"/><text y="-351.61209829867676" dy="0.35em" stroke="#fff" stroke-width="5">70</text><text y="-351.61209829867676" dy="0.35em" stroke="none" stroke-width="5" fill="currentColor">70</text><text y="351.61209829867676" dy="0.35em" stroke="#fff" stroke-width="5">70</text><text y="351.61209829867676" dy="0.35em" stroke="none" stroke-width="5" fill="currentColor">70</text></g><g fill="none"><circle stroke="#000" stroke-opacity="0.2" r="325.50623818525526"/><text y="-325.50623818525526" dy="0.35em" stroke="#fff" stroke-width="5">65</text><text y="-325.50623818525526" dy="0.35em" stroke="none" stroke-width="5" fill="currentColor">65</text><text y="325.50623818525526" dy="0.35em" stroke="#fff" stroke-width="5">65</text><text y="325.50623818525526" dy="0.35em" stroke="none" stroke-width="5" fill="currentColor">65</text></g><g fill="none"><circle stroke="#000" stroke-opacity="0.2" r="299.4003780718337"/><text y="-299.4003780718337" dy="0.35em" stroke="#fff" stroke-width="5">60</text><text y="-299.4003780718337" dy="0.35em" stroke="none" stroke-width="5" fill="currentColor">60</text><text y="299.4003780718337" dy="0.35em" stroke="#fff" stroke-width="5">60</text><text y="299.4003780718337" dy="0.35em" stroke="none" stroke-width="5" fill="currentColor">60</text></g><g fill="none"><circle stroke="#000" stroke-opacity="0.2" r="273.29451795841214"/><text y="-273.29451795841214" dy="0.35em" stroke="#fff" stroke-width="5">55</text><text y="-273.29451795841214" dy="0.35em" stroke="none" stroke-width="5" fill="currentColor">55</text><text y="273.29451795841214" dy="0.35em" stroke="#fff" stroke-width="5">55</text><text y="273.29451795841214" dy="0.35em" stroke="none" stroke-width="5" fill="currentColor">55</text></g><g fill="none"><circle stroke="#000" stroke-opacity="0.2" r="247.18865784499053"/><text y="-247.18865784499053" dy="0.35em" stroke="#fff" stroke-width="5">50</text><text y="-247.18865784499053" dy="0.35em" stroke="none" stroke-width="5" fill="currentColor">50</text><text y="247.18865784499053" dy="0.35em" stroke="#fff" stroke-width="5">50</text><text y="247.18865784499053" dy="0.35em" stroke="none" stroke-width="5" fill="currentColor">50</text></g><g fill="none"><circle stroke="#000" stroke-opacity="0.2" r="221.082797731569"/><text y="-221.082797731569" dy="0.35em" stroke="#fff" stroke-width="5">45</text><text y="-221.082797731569" dy="0.35em" stroke="none" stroke-width="5" fill="currentColor">45</text><text y="221.082797731569" dy="0.35em" stroke="#fff" stroke-width="5">45</text><text y="221.082797731569" dy="0.35em" stroke="none" stroke-width="5" fill="currentColor">45</text></g><g fill="none"><circle stroke="#000" stroke-opacity="0.2" r="194.97693761814745"/><text y="-194.97693761814745" dy="0.35em" stroke="#fff" stroke-width="5">40</text><text y="-194.97693761814745" dy="0.35em" stroke="none" stroke-width="5" fill="currentColor">40</text><text y="194.97693761814745" dy="0.35em" stroke="#fff" stroke-width="5">40</text><text y="194.97693761814745" dy="0.35em" stroke="none" stroke-width="5" fill="currentColor">40</text></g></g></svg>